<svg width="60" height="60" viewBox="0 0 60 60" fill="none" xmlns="http://www.w3.org/2000/svg">
<path d="M55 34C55.553 34 55.9999 33.552 55.9999 33V29C55.9999 28.4481 55.553 28.0001 55 28.0001H49.9999V27C49.9999 26.448 49.553 26 49 26C48.447 26 48 26.448 48 27V28H20V27C20 26.448 19.552 26 19.0001 26C18.4481 26 18.0001 26.448 18.0001 27V28H13.0001C12.4481 28 12.0001 28.448 12.0001 28.9999V33C12.0001 33.552 12.4481 34 13.0001 34H19.0001H49.0001H55ZM14 32V30H54V32H14Z" fill="#D4C17F"/>
<path d="M36 22C34.3831 22 33.338 23.2289 33.224 23.37C32.8779 23.795 32.942 24.416 33.3649 24.7661C33.7889 25.117 34.416 25.0561 34.771 24.6381C34.7749 24.6311 35.3169 24.0001 35.9999 24.0001C36.6829 24.0001 37.2239 24.6312 37.2239 24.6312C37.422 24.8742 37.7099 25.0002 38.0009 25.0002C38.2228 25.0002 38.4449 24.9272 38.6309 24.7763C39.0599 24.4282 39.1239 23.7982 38.7758 23.3702C38.6621 23.229 37.617 22 36 22Z" fill="#D4C17F"/>
<path d="M55 42C55.553 42 55.9999 41.552 55.9999 41V37.0001C55.9999 36.4481 55.553 36.0001 55 36.0001H49.9999V35.0001C49.9999 34.4482 49.553 34.0002 49 34.0002C48.447 34.0002 48 34.4482 48 35.0001V36.0001H20V35.0001C20 34.4482 19.552 34.0002 19.0001 34.0002C18.4481 34.0002 18.0001 34.4482 18.0001 35.0001V36.0001H13.0001C12.4481 36.0001 12.0001 36.4481 12.0001 37.0001V41C12.0001 41.552 12.4481 42 13.0001 42H19.0001H49.0001H55ZM14 40V37.9999H54V40H14Z" fill="#D4C17F"/>
<path d="M41.224 19.6299C41.4221 19.8739 41.71 19.9999 42.001 19.9999C42.223 19.9999 42.445 19.9269 42.631 19.776C43.06 19.4279 43.124 18.7979 42.776 18.3699C42.6619 18.229 41.617 16.9999 39.9999 16.9999C38.3828 16.9999 37.3379 18.2289 37.2238 18.3699C36.8778 18.795 36.9419 19.416 37.3648 19.766C37.7888 20.118 38.4159 20.056 38.7698 19.638C38.7748 19.631 39.3168 19.0001 39.9998 19.0001C40.6831 18.9999 41.224 19.6299 41.224 19.6299Z" fill="#D4C17F"/>
<path d="M1.00515 13.1C1.05612 13.6111 1.4862 14 2.00019 14H8.00019C8.51417 14 8.94413 13.6111 8.99523 13.1L9.99519 3.10008C10.0232 2.81813 9.9312 2.5391 9.74124 2.3291C9.55222 2.12004 9.28327 2.00016 9.00027 2.00016H6.00015V0.999961C6.00015 0.448008 5.55214 0 5.00019 0C4.44823 0 4.00023 0.448008 4.00023 0.999961V1.99992H1.00023C0.717219 1.99992 0.448273 2.11992 0.25925 2.32887C0.0692889 2.53887 -0.0227033 2.81789 0.00530453 3.09984L1.00515 13.1ZM7.89519 3.99996L7.09515 12H2.90511L2.10507 3.99996H7.89519Z" fill="#D4C17F"/>
<path d="M28 23C28 24.118 28.457 25.158 29.287 25.927C29.4789 26.105 29.723 26.194 29.967 26.194C30.235 26.194 30.503 26.0859 30.7 25.8739C31.075 25.4689 31.052 24.8359 30.647 24.46C30.229 24.0739 30 23.5549 30 22.9999C30 22.1719 30.527 21.4209 31.313 21.132C31.639 21.012 31.879 20.7309 31.947 20.3899C32.016 20.0489 31.9009 19.6969 31.647 19.4599C31.229 19.0739 31 18.5549 31 17.9999C31 16.9598 31.819 16.0898 32.864 16.0179C33.248 15.9919 33.582 15.7489 33.725 15.3919C33.867 15.0349 33.7929 14.6279 33.533 14.3449C33.1891 13.9699 33 13.4919 33 13C33 11.9599 33.8191 11.0899 34.864 11.018C35.2481 10.992 35.582 10.749 35.725 10.392C35.867 10.035 35.793 9.62801 35.533 9.345C35.19 8.97 35.0001 8.49199 35.0001 8.00004C35.0001 7.10602 35.6091 6.31699 36.48 6.08109C36.7571 6.00609 36.987 5.81707 37.114 5.56207C37.242 5.30707 37.2541 5.00813 37.1471 4.7441C37.05 4.49906 37.0001 4.2491 37.0001 4.00008C37.0001 2.89711 37.8971 2.00004 39.0002 2.00004C40.1031 2.00004 41.0002 2.89699 41.0002 4.00008C41.0002 4.2491 40.9502 4.49906 40.8532 4.7441C40.7463 5.00813 40.7582 5.30707 40.8863 5.56207C41.0133 5.81707 41.2432 6.00609 41.5203 6.08109C42.3913 6.31711 43.0002 7.10613 43.0002 8.00004C43.0002 8.49199 42.8103 8.97 42.4673 9.345C42.2072 9.62801 42.1333 10.035 42.2753 10.392C42.4183 10.7489 42.7523 10.992 43.1363 11.018C44.1813 11.0899 45.0003 11.9599 45.0003 13C45.0003 13.4919 44.8103 13.9699 44.4673 14.3449C44.2073 14.6279 44.1333 15.0349 44.2754 15.3919C44.4183 15.7488 44.7523 15.9919 45.1363 16.0179C46.1813 16.0898 47.0003 16.9598 47.0003 17.9999C47.0003 18.5549 46.7713 19.0739 46.3533 19.4599C46.0994 19.6969 45.9843 20.0489 46.0533 20.3899C46.1213 20.7309 46.3613 21.012 46.6884 21.132C47.4734 21.4209 48.0004 22.172 48.0004 22.9999C48.0004 23.5519 48.4473 23.9999 49.0004 23.9999C49.5534 23.9999 50.0003 23.5519 50.0003 22.9999C50.0003 21.7819 49.4354 20.6489 48.5164 19.9029C48.8324 19.3259 49.0004 18.6769 49.0004 17.9999C49.0004 16.4359 48.0803 15.0619 46.7384 14.4118C46.9104 13.9638 47.0004 13.4858 47.0004 12.9998C47.0004 11.4359 46.0804 10.0618 44.7385 9.4118C44.9105 8.96379 45.0005 8.48578 45.0005 7.9998C45.0005 6.54176 44.1985 5.22481 42.9645 4.52777C42.9885 4.35281 43.0005 4.1768 43.0005 3.99973C43 1.79402 41.2061 0 39 0C36.794 0 35.0001 1.79402 35.0001 3.99996C35.0001 4.17691 35.012 4.35293 35.0361 4.52801C33.8021 5.22504 33 6.54199 33 8.00004C33 8.48602 33.09 8.96402 33.2621 9.41203C31.92 10.0621 31.0001 11.436 31.0001 13.0001C31.0001 13.4861 31.0901 13.9641 31.2621 14.4121C29.9201 15.0621 29.0002 16.436 29.0002 18.0001C29.0002 18.6771 29.1682 19.3261 29.4842 19.9031C28.5651 20.649 28 21.782 28 23Z" fill="#D4C17F"/>
<path d="M37.6191 13.921C38.1271 14.131 38.7121 13.8891 38.9252 13.381C38.9442 13.333 38.9722 13.28 39.0002 13.228C39.0282 13.278 39.0542 13.33 39.0732 13.3769C39.2312 13.765 39.6052 14.001 40.0001 14.001C40.1261 14.001 40.2531 13.9769 40.3761 13.926C40.8881 13.719 41.1351 13.135 40.9271 12.624C40.8161 12.353 40.2062 11 39.0001 11C37.7941 11 37.184 12.3531 37.073 12.624C36.8661 13.133 37.1111 13.711 37.6191 13.921Z" fill="#D4C17F"/>
<path d="M59 58H43C42.447 58 42 58.448 42 58.9999C42 59.5519 42.447 59.9999 43 59.9999H58.9999C59.5529 59.9999 59.9999 59.5519 59.9999 58.9999C59.9999 58.448 59.553 58 59 58Z" fill="#D4C17F"/>
<path d="M59.0001 44H50.0001V43.0001C50.0001 42.4481 49.5532 42.0001 49.0002 42.0001C48.4472 42.0001 48.0002 42.4481 48.0002 43.0001V44H20.0001V43.0001C20.0001 42.4481 19.5521 42.0001 19.0002 42.0001C18.4482 42.0001 18.0002 42.4481 18.0002 43.0001V44H9.00008C8.44813 44 8.00012 44.4481 8.00012 45V49C8.00012 49.5519 8.44813 49.9999 9.00008 49.9999H12.0001V55C12.0001 55.5519 12.4481 55.9999 13 55.9999C13.552 55.9999 14 55.5519 14 55V49.9999H54.0001V55C54.0001 55.5519 54.447 55.9999 55 55.9999C55.5531 55.9999 56 55.5519 56 55V49.9999H59C59.553 49.9999 60 49.5519 60 49V45C60.0001 44.4481 59.5531 44 59.0001 44ZM58 48H10V46H58V48Z" fill="#D4C17F"/>
<path d="M15 58H6.00001V17.0001C6.00001 16.4481 5.552 16.0001 5.00004 16.0001C4.44809 16.0001 4.00008 16.4481 4.00008 17.0001V58.0001H1.00008C0.44813 58.0001 0.00012207 58.4481 0.00012207 59C0.00012207 59.552 0.448013 60 0.999966 60H15C15.552 60 16 59.552 16 59C16 58.4481 15.552 58 15 58Z" fill="#D4C17F"/>
<path d="M39 58H37C36.447 58 36 58.448 36 58.9999C36 59.5519 36.447 59.9999 37 59.9999H39C39.553 59.9999 40 59.5519 40 58.9999C40 58.448 39.553 58 39 58Z" fill="#D4C17F"/>
<path d="M31 58H21.0001C20.4481 58 20.0001 58.448 20.0001 58.9999C20.0001 59.5519 20.4481 60 21.0001 60H31C31.5531 60 32 59.552 32 59C32 58.4481 31.5531 58 31 58Z" fill="#D4C17F"/>
</svg>
