<svg width="60" height="60" viewBox="0 0 60 60" fill="none" xmlns="http://www.w3.org/2000/svg">
<path d="M15 51.0008H0.999961C0.446953 51.0008 0 51.4488 0 52.0008C0 52.5527 0.446953 53.0007 0.999961 53.0007H15C15.553 53.0007 16 52.5527 16 52.0008C16 51.4488 15.553 51.0008 15 51.0008Z" fill="#D4C17F"/>
<path d="M12 48.9988C18.617 48.9988 24 43.6147 24 36.9988C24 33.6858 22.6789 30.6008 20.28 28.3118C19.882 27.9318 19.247 27.9468 18.866 28.3448C18.485 28.7448 18.5 29.3778 18.8991 29.7588C20.898 31.6669 22.0001 34.2368 22.0001 36.9988C22.0001 42.5128 17.514 46.9987 12.0001 46.9987C6.48621 46.9987 2.00016 42.5127 2.00016 36.9988C2.00016 31.4838 6.48621 26.9988 12.0001 26.9988C12.5531 26.9988 13.0001 26.5508 13.0001 25.9989C13.0001 25.4459 12.5531 24.9989 12.0001 24.9989C5.38313 24.9989 0.000122072 30.3819 0.000122072 36.9989C4.88475e-06 43.6147 5.38301 48.9988 12 48.9988Z" fill="#D4C17F"/>
<path d="M17.0001 20.9987H17.507L11.73 35.0257C10.7561 35.1587 10 35.9877 10 36.9987C10 38.1016 10.897 38.9987 12 38.9987C13.103 38.9987 14.0001 38.1017 14.0001 36.9987C14.0001 36.5407 13.8401 36.1247 13.5801 35.7867L19.2231 22.0847L25.5522 31.2737C25.8641 31.7287 26.4852 31.8446 26.9422 31.5307C27.3981 31.2167 27.5122 30.5947 27.1982 30.1397L20.9022 20.9987H23.0002C24.6542 20.9987 26.0002 19.6527 26.0002 17.9987C26.0002 16.3436 24.6542 14.9987 23.0002 14.9987H17.0002C16.4472 14.9987 16.0002 15.4456 16.0002 15.9986V19.9986C16 20.5508 16.4471 20.9987 17.0001 20.9987ZM18 16.9987H23.0001C23.552 16.9987 24 17.4467 24 17.9987C24 18.5497 23.552 18.9986 23.0001 18.9986H18V16.9987Z" fill="#D4C17F"/>
<path d="M47 25.9987C47 26.5507 47.447 26.9987 48 26.9987C53.514 26.9987 58 31.4837 58 36.9987C58 42.5127 53.5139 46.9986 48 46.9986C42.4861 46.9986 38 42.5126 38 36.9987C38 34.0017 39.3271 31.1886 41.643 29.2787C42.0681 28.9277 42.129 28.2977 41.777 27.8717C41.426 27.4467 40.797 27.3838 40.369 27.7358C37.5929 30.0268 36 33.4018 36 36.9988C36 43.6147 41.383 48.9988 48 48.9988C54.617 48.9988 60 43.6147 60 36.9988C60 30.3818 54.617 24.9988 48 24.9988C47.447 24.9988 47 25.4457 47 25.9987Z" fill="#D4C17F"/>
<path d="M30.9999 51.0008H21C20.447 51.0008 20 51.4488 20 52.0008C20 52.5527 20.447 53.0007 21 53.0007H30.9999C31.5529 53.0007 31.9999 52.5527 31.9999 52.0008C32 51.4488 31.5529 51.0008 30.9999 51.0008Z" fill="#D4C17F"/>
<path d="M30.9999 32.1408V28.9987C31.5529 28.9987 31.9999 28.5507 31.9999 27.9988C31.9999 27.4458 31.5529 26.9988 30.9999 26.9988H28.9999C28.4469 26.9988 27.9999 27.4458 27.9999 27.9988C27.9999 28.5507 28.4469 28.9987 28.9999 28.9987V32.1408C27.2789 32.5877 25.9999 34.1398 25.9999 35.9988C25.9999 37.8568 27.2789 39.4089 28.9999 39.8569V42.9989C28.4469 42.9989 27.9999 43.4459 27.9999 43.9989C27.9999 44.5508 28.4469 44.9988 28.9999 44.9988H30.9999C31.5529 44.9988 31.9999 44.5508 31.9999 43.9989C31.9999 43.4459 31.5529 42.9989 30.9999 42.9989V39.8569C32.7209 39.4089 33.9999 37.8568 33.9999 35.9988C33.9999 34.1398 32.7209 32.5877 30.9999 32.1408ZM30 37.9987C28.8979 37.9987 27.9999 37.1018 27.9999 35.9987C27.9999 34.8957 28.8979 33.9987 30 33.9987C31.1029 33.9987 32 34.8956 32 35.9987C32 37.1018 31.1029 37.9987 30 37.9987Z" fill="#D4C17F"/>
<path d="M46.459 35.7388C46.1771 36.0838 46 36.5188 46 36.9988C46 38.1017 46.898 38.9988 48 38.9988C49.1021 38.9988 50.0001 38.1019 50.0001 36.9988C50.0001 36.0088 49.275 35.1908 48.3311 35.0318L43.8181 22.9987H50.957C52.154 22.9987 52.8501 22.0418 52.981 21.1948L53.98 16.1947C54.0389 15.9007 53.963 15.5958 53.773 15.3647C53.5831 15.1326 53.3001 14.9987 53.0001 14.9987H44.0001C43.4471 14.9987 43.0001 15.4457 43.0001 15.9987C43.0001 16.5506 43.4471 16.9986 44.0001 16.9986H51.78L51.0161 20.8247C51.0011 20.8937 50.9581 20.9907 50.9571 20.9987H43.0682L39.9372 12.6477C39.9352 12.6437 39.9321 12.6417 39.9312 12.6377C39.9292 12.6337 39.9302 12.6298 39.9292 12.6267L37.9292 7.62667C37.7242 7.11362 37.1372 6.86764 36.6292 7.06968C36.1162 7.27464 35.8662 7.85671 36.0712 8.36964L37.8932 12.9206L34.1322 19.5026C33.8571 19.9816 34.0241 20.5925 34.5041 20.8666C34.6601 20.9556 34.8311 20.9986 34.9991 20.9986C35.3472 20.9986 35.6841 20.8176 35.8681 20.4946L38.8121 15.3436L41.218 21.7605L33.597 30.3335C33.229 30.7465 33.267 31.3785 33.68 31.7455C33.8699 31.9155 34.107 31.9985 34.3439 31.9985C34.619 31.9985 34.8939 31.8845 35.0909 31.6625L42.0119 23.8775L46.459 35.7388Z" fill="#D4C17F"/>
<path d="M59 51.0008H43C42.447 51.0008 42 51.4488 42 52.0008C42 52.5527 42.447 53.0007 43 53.0007H58.9999C59.5529 53.0007 59.9999 52.5527 59.9999 52.0008C60 51.4488 59.553 51.0008 59 51.0008Z" fill="#D4C17F"/>
<path d="M39 51.0008H37C36.447 51.0008 36 51.4488 36 52.0008C36 52.5527 36.447 53.0007 37 53.0007H39C39.553 53.0007 40 52.5527 40 52.0008C40 51.4488 39.553 51.0008 39 51.0008Z" fill="#D4C17F"/>
</svg>
