<svg width="60" height="60" viewBox="0 0 60 60" fill="none" xmlns="http://www.w3.org/2000/svg">
<path d="M42.9999 56H15C14.448 56 14 56.448 14 57V59C14 59.552 14.448 60 15 60C15.5519 60 15.9999 59.552 15.9999 59V58.0001H42.9999C43.5519 58.0001 43.9999 57.5521 43.9999 57.0001C43.9999 56.4482 43.552 56 42.9999 56Z" fill="#D4C17F"/>
<path d="M22 25C22 25.5519 22.448 25.9999 23 25.9999H27C27.552 25.9999 28 25.5519 28 25V19C28 18.448 27.552 18 27 18H23.0001C22.4481 18 22.0001 18.448 22.0001 19V25H22ZM24 20H26.0001V24H24V20Z" fill="#D4C17F"/>
<path d="M13 12H0.999961C0.448008 12 0 12.448 0 13V33C0 33.552 0.448008 34 0.999961 34C1.55191 34 1.99992 33.552 1.99992 33V14H13C13.5519 14 13.9999 13.552 13.9999 13.0001C13.9999 12.4481 13.552 12 13 12Z" fill="#D4C17F"/>
<path d="M48 49C48 49.5519 48.448 49.9999 49 49.9999H52.9999C53.5519 49.9999 53.9999 49.5519 53.9999 49V43C53.9999 42.448 53.5519 42 52.9999 42H49C48.448 42 48 42.448 48 43V49ZM50 44H52.0001V48H50V44Z" fill="#D4C17F"/>
<path d="M5.00004 36C0.0569531 36 0 48.87 0 49C0 51.415 1.72102 53.434 3.99996 53.899V59C3.99996 59.552 4.44797 60 4.99992 60C5.55188 60 5.99988 59.552 5.99988 59V53.899C8.27883 53.434 9.99984 51.415 9.99984 49C9.99996 48.87 9.94301 36 5.00004 36ZM5.00004 52C3.34605 52 2.00004 50.6539 2.00004 49C2.00004 44.018 3.33809 37.9999 5.00004 37.9999C6.66199 37.9999 8.00004 44.018 8.00004 49C8.00004 50.6539 6.65402 52 5.00004 52Z" fill="#D4C17F"/>
<path d="M11 30H6.99996C6.44801 30 6 30.448 6 31V33C6 33.552 6.44801 34 6.99996 34C7.55191 34 7.99992 33.552 7.99992 33V32H9.99996V37.0001C9.99996 37.552 10.448 38 10.9999 38C11.5519 38 11.9999 37.552 11.9999 37.0001V31.0001C12 30.448 11.552 30 11 30Z" fill="#D4C17F"/>
<path d="M49 26H52.9999C53.5519 26 53.9999 25.552 53.9999 25.0001V19.0001C53.9999 18.4481 53.5519 18.0001 52.9999 18.0001H49C48.448 18.0001 48 18.4481 48 19.0001V25.0001C48 25.552 48.448 26 49 26ZM50 20H52.0001V24H50V20Z" fill="#D4C17F"/>
<path d="M11 18H6.99996C6.44801 18 6 18.448 6 19V25C6 25.5519 6.44801 25.9999 6.99996 25.9999H10.9999C11.5519 25.9999 11.9999 25.5519 11.9999 25V19C12 18.448 11.552 18 11 18ZM9.99996 24H8.00004V20H10.0001V24H9.99996Z" fill="#D4C17F"/>
<path d="M32 25C32 25.5519 32.448 25.9999 33 25.9999H36.9999C37.5519 25.9999 37.9999 25.5519 37.9999 25V19C37.9999 18.448 37.5519 18 36.9999 18H33C32.448 18 32 18.448 32 19V25ZM33.9999 20H36V24H33.9999V20Z" fill="#D4C17F"/>
<path d="M59 12H47C46.448 12 46 12.448 46 13C46 13.5519 46.448 13.9999 47 13.9999H58V54.184C57.6861 54.072 57.353 54 57 54C56.8271 54 56.655 54.015 56.4861 54.045C55.7961 52.802 54.4831 52 53.0001 52C51.5171 52 50.2041 52.802 49.5141 54.045C49.3451 54.015 49.1731 54 49.0001 54C47.3461 54 46.0001 55.346 46.0001 57C46.0001 58.654 47.3461 60 49.0001 60H56.9999C58.6539 60 59.9999 58.654 59.9999 57V13C59.9999 12.448 59.5519 12 59 12ZM56.9999 58H48.9999C48.4489 58 47.9999 57.551 47.9999 57C47.9999 56.449 48.4489 56 48.9999 56C49.1918 56 49.3738 56.055 49.5419 56.163C49.8159 56.3391 50.1579 56.3711 50.4599 56.2491C50.7619 56.1271 50.9849 55.865 51.0579 55.548C51.269 54.637 52.068 54 53 54C53.932 54 54.7309 54.637 54.942 55.548C55.015 55.865 55.238 56.1271 55.54 56.2491C55.8411 56.3711 56.1839 56.3391 56.458 56.163C57.109 55.743 58 56.257 58 57C57.9999 57.551 57.5509 58 56.9999 58Z" fill="#D4C17F"/>
<path d="M33 14H36.9999C37.5519 14 37.9999 13.552 37.9999 13.0001V7.00008C37.9999 6.44813 37.5519 6.00012 36.9999 6.00012H33C32.448 6.00012 32 6.44813 32 7.00008V13.0001C32 13.552 32.448 14 33 14ZM33.9999 8.00004H36V12H33.9999V8.00004Z" fill="#D4C17F"/>
<path d="M32 37C32 37.5519 32.448 37.9999 33 37.9999H36.9999C37.5519 37.9999 37.9999 37.5519 37.9999 37V31C37.9999 30.448 37.5519 30 36.9999 30H33C32.448 30 32 30.448 32 31V37ZM33.9999 32H36V36H33.9999V32Z" fill="#D4C17F"/>
<path d="M23 14H26.9999C27.5519 14 27.9999 13.552 27.9999 13.0001V7.00008C27.9999 6.44813 27.5519 6.00012 26.9999 6.00012H23C22.448 6.00012 22 6.44813 22 7.00008V13.0001C21.9999 13.552 22.4479 14 23 14ZM23.9999 8.00004H26V12H23.9999V8.00004Z" fill="#D4C17F"/>
<path d="M29.2899 48.29C29.1099 48.48 28.9999 48.74 28.9999 49.0001C28.9999 49.2601 29.1099 49.52 29.2899 49.7101C29.4799 49.8901 29.7399 50.0002 30 50.0002C30.26 50.0002 30.5199 49.8901 30.71 49.7101C30.89 49.5202 31 49.2601 31 49.0001C31 48.74 30.89 48.4801 30.71 48.29C30.33 47.92 29.67 47.92 29.2899 48.29Z" fill="#D4C17F"/>
<path d="M22 37C22 37.5519 22.448 37.9999 23 37.9999H27C27.552 37.9999 28 37.5519 28 37V31C28 30.448 27.552 30 27 30H23.0001C22.4481 30 22.0001 30.448 22.0001 31V37H22ZM24 32H26.0001V36H24V32Z" fill="#D4C17F"/>
<path d="M20 43C20 43.5519 20.448 43.9999 21 43.9999H24V52.9999C24 53.5519 24.448 53.9999 24.9999 53.9999C25.5519 53.9999 25.9999 53.5519 25.9999 52.9999V43.9999H33.9999V52.9999C33.9999 53.5519 34.4479 53.9999 34.9999 53.9999C35.5518 53.9999 35.9998 53.5519 35.9998 52.9999V43.9999H38.9998C39.5518 43.9999 39.9998 43.5519 39.9998 43C39.9998 42.448 39.5518 42 38.9998 42H21C20.448 42 20 42.448 20 43Z" fill="#D4C17F"/>
<path d="M48 37C48 37.5519 48.448 37.9999 49 37.9999H52.9999C53.5519 37.9999 53.9999 37.5519 53.9999 37V31C53.9999 30.448 53.5519 30 52.9999 30H49C48.448 30 48 30.448 48 31V37ZM50 32H52.0001V36H50V32Z" fill="#D4C17F"/>
<path d="M43 0H17.0001C16.4481 0 16.0001 0.448008 16.0001 0.999961V52.9999C16.0001 53.5519 16.4481 53.9999 17.0001 53.9999C17.552 53.9999 18 53.5519 18 52.9999V1.99992H42V52.9999C42 53.5519 42.4481 53.9999 43 53.9999C43.552 53.9999 44 53.5519 44 52.9999V0.999961C44.0001 0.448008 43.5521 0 43 0Z" fill="#D4C17F"/>
</svg>
