<svg width="60" height="60" viewBox="0 0 60 60" fill="none" xmlns="http://www.w3.org/2000/svg">
<g clip-path="url(#clip0)">
<path d="M40.0421 3.4664C40.1791 3.4664 40.3171 3.43839 40.4501 3.37839C40.7361 3.25043 41.0261 3.12937 41.3201 3.01839C41.8371 2.8214 42.0971 2.24437 41.9001 1.7284C41.704 1.21137 41.1261 0.95543 40.611 1.14738C40.28 1.27336 39.953 1.40941 39.632 1.55344C39.128 1.77949 38.9021 2.3714 39.1291 2.87543C39.2951 3.24632 39.6591 3.4664 40.0421 3.4664Z" fill="#D4C17F"/>
<path d="M40.0001 25.1533C40.5531 25.1533 41 24.7063 41 24.1533V23.9804C41 23.7174 41.017 23.4594 41.0501 23.2054C41.122 22.6574 40.736 22.1554 40.19 22.0835C39.626 22.0115 39.14 22.3974 39.067 22.9444C39.0231 23.2824 39 23.6314 39 23.9805V24.1535C39.0001 24.7063 39.4471 25.1533 40.0001 25.1533Z" fill="#D4C17F"/>
<path d="M35.0001 25.4003C35.5531 25.4003 36 24.9523 36 24.4004V23.3844C36 22.8324 35.5531 22.3844 35.0001 22.3844C34.4471 22.3844 34.0001 22.8324 34.0001 23.3844V24.4004C34.0001 24.9523 34.4471 25.4003 35.0001 25.4003Z" fill="#D4C17F"/>
<path d="M40.7421 9.58334C40.4201 9.7603 40.1051 9.95131 39.8022 10.1544C39.3431 10.4614 39.2192 11.0833 39.5262 11.5424C39.7192 11.8304 40.0362 11.9853 40.3582 11.9853C40.5502 11.9853 40.7432 11.9313 40.9132 11.8163C41.1702 11.6454 41.4352 11.4844 41.7072 11.3344C42.1902 11.0683 42.3671 10.4593 42.1011 9.97639C41.8341 9.49241 41.227 9.31838 40.7421 9.58334Z" fill="#D4C17F"/>
<path d="M26.5581 9.48139C26.7471 9.78338 27.0721 9.94944 27.4051 9.94944C27.5871 9.94944 27.7711 9.90046 27.9352 9.79639C28.4032 9.50237 28.5451 8.88538 28.2512 8.41839C28.0622 8.11733 27.8663 7.82343 27.6602 7.53538C27.3393 7.08644 26.7163 6.98144 26.2652 7.3044C25.8152 7.62643 25.7122 8.25046 26.0332 8.6994C26.216 8.9544 26.3911 9.21538 26.5581 9.48139Z" fill="#D4C17F"/>
<path d="M44.8411 2.1164C44.8822 2.1164 44.9252 2.11336 44.9671 2.10844C45.2761 2.06941 45.5891 2.03941 45.9051 2.01738C46.457 1.98035 46.873 1.50434 46.8371 0.953438C46.8011 0.402423 46.3171 -0.0145292 45.7731 0.0223848C45.4171 0.0453535 45.0651 0.0803925 44.7172 0.124338C44.1692 0.193361 43.7801 0.693282 43.8502 1.24137C43.9131 1.74633 44.3441 2.1164 44.8411 2.1164Z" fill="#D4C17F"/>
<path d="M41.133 18.5414C40.758 18.9464 40.781 19.5794 41.1851 19.9544C41.3791 20.1333 41.622 20.2214 41.866 20.2214C42.135 20.2214 42.402 20.1144 42.6 19.9013C42.808 19.6774 43.037 19.4653 43.2809 19.2713C43.7139 18.9274 43.7859 18.2983 43.442 17.8664C43.0989 17.4344 42.469 17.3603 42.037 17.7053C41.714 17.9613 41.4101 18.2434 41.133 18.5414Z" fill="#D4C17F"/>
<path d="M32.064 9.79639C32.229 9.90034 32.413 9.94944 32.595 9.94944C32.928 9.94944 33.253 9.78338 33.442 9.48139C33.609 9.21538 33.784 8.9544 33.967 8.6994C34.288 8.25046 34.185 7.62643 33.735 7.3044C33.2839 6.98144 32.661 7.08644 32.34 7.53538C32.134 7.82343 31.937 8.11733 31.749 8.41839C31.4551 8.88538 31.597 9.50237 32.064 9.79639Z" fill="#D4C17F"/>
<path d="M40.0001 29.9804C40.5531 29.9804 41 29.5324 41 28.9804V28.4804C41 27.9284 40.5531 27.4804 40.0001 27.4804C39.4471 27.4804 39.0001 27.9284 39.0001 28.4804V28.9804C39.0001 29.5324 39.4471 29.9804 40.0001 29.9804Z" fill="#D4C17F"/>
<path d="M34.9791 20.3183C35.0251 20.3253 35.0701 20.3282 35.1151 20.3282C35.6071 20.3282 36.0371 19.9643 36.1061 19.4622C36.1471 19.1543 36.202 18.8503 36.27 18.5503C36.393 18.0113 36.055 17.4763 35.516 17.3543C34.9771 17.2323 34.4411 17.5693 34.3191 18.1083C34.239 18.4652 34.173 18.8272 34.123 19.1933C34.0491 19.7403 34.4331 20.2443 34.9791 20.3183Z" fill="#D4C17F"/>
<path d="M28.171 12.8844C28.271 13.1804 28.361 13.4793 28.444 13.7833C28.5651 14.2283 28.969 14.5214 29.408 14.5214C29.495 14.5214 29.583 14.5094 29.671 14.4854C29.795 14.4523 29.903 14.3923 29.9999 14.3215C30.097 14.3925 30.2049 14.4525 30.3289 14.4854C30.4169 14.5094 30.5049 14.5214 30.5919 14.5214C31.0308 14.5214 31.4349 14.2284 31.5558 13.7833C31.6388 13.4793 31.7279 13.1803 31.8289 12.8844C32.0078 12.3614 31.7269 11.7934 31.2049 11.6154C30.7249 11.4514 30.2189 11.6864 29.9998 12.1304C29.7808 11.6864 29.2748 11.4514 28.7948 11.6154C28.272 11.7934 27.9921 12.3614 28.171 12.8844Z" fill="#D4C17F"/>
<path d="M35.839 6.1563C36.072 6.1563 36.306 6.07532 36.495 5.91126C36.732 5.70524 36.975 5.5052 37.223 5.31431C37.6611 4.97728 37.742 4.35032 37.4061 3.91228C37.069 3.47423 36.441 3.39126 36.004 3.72923C35.723 3.94521 35.449 4.16927 35.183 4.40224C34.7661 4.76423 34.722 5.39622 35.085 5.81329C35.282 6.0404 35.56 6.1563 35.839 6.1563Z" fill="#D4C17F"/>
<path d="M36.6161 13.1564C36.3961 13.4484 36.1881 13.7504 35.9931 14.0604C35.6981 14.5274 35.8391 15.1454 36.3061 15.4404C36.4722 15.5434 36.6551 15.5934 36.8381 15.5934C37.1701 15.5934 37.4951 15.4284 37.6852 15.1264C37.8512 14.8634 38.0271 14.6074 38.2142 14.3604C38.5462 13.9194 38.4581 13.2923 38.0172 12.9594C37.5751 12.6263 36.9481 12.7174 36.6161 13.1564Z" fill="#D4C17F"/>
<path d="M45.9771 8.02041C45.6071 8.04841 45.2431 8.09236 44.8841 8.15142C44.3391 8.24142 43.9701 8.75646 44.0601 9.30138C44.1402 9.79134 44.5631 10.1383 45.0451 10.1383C45.0991 10.1383 45.1531 10.1343 45.2081 10.1253C45.5131 10.0753 45.8201 10.0384 46.1311 10.0143C46.6821 9.97134 47.0941 9.4904 47.0511 8.93939C47.008 8.38931 46.539 7.97341 45.9771 8.02041Z" fill="#D4C17F"/>
<path d="M49.6771 2.19034C49.9881 2.24038 50.298 2.29932 50.604 2.36635C50.677 2.38241 50.748 2.38932 50.8191 2.38932C51.279 2.38932 51.6921 2.07127 51.7951 1.60428C51.9131 1.06428 51.5721 0.531317 51.0321 0.413309C50.6882 0.337372 50.3421 0.272333 49.9911 0.216317C49.4461 0.126318 48.9341 0.501317 48.8471 1.04635C48.7601 1.59139 49.1311 2.10432 49.6771 2.19034Z" fill="#D4C17F"/>
<path d="M51.388 8.73935C51.043 8.61631 50.692 8.50639 50.337 8.4124C49.806 8.27436 49.257 8.58936 49.114 9.12338C48.973 9.6574 49.2909 10.2043 49.825 10.3463C50.126 10.4253 50.4219 10.5173 50.712 10.6223C50.824 10.6623 50.937 10.6813 51.0499 10.6813C51.46 10.6813 51.8449 10.4263 51.9909 10.0182C52.1781 9.49838 51.907 8.92533 51.388 8.73935Z" fill="#D4C17F"/>
<path d="M46.593 15.9903C46.041 16.0183 45.616 16.4873 45.644 17.0383C45.671 17.5903 46.104 18.0103 46.692 17.9873C46.999 17.9723 47.316 17.9813 47.62 18.0123C47.655 18.0162 47.69 18.0173 47.7241 18.0173C48.231 18.0173 48.664 17.6343 48.718 17.1203C48.7741 16.5704 48.3741 16.0794 47.8251 16.0223C47.42 15.9813 47.001 15.9684 46.593 15.9903Z" fill="#D4C17F"/>
<path d="M58.261 6.65434C58.458 6.87031 58.7291 6.98035 59 6.98035C59.2411 6.98035 59.482 6.89434 59.674 6.71938C60.082 6.34742 60.111 5.71438 59.739 5.30633C59.619 5.17532 59.497 5.04629 59.374 4.92032C58.986 4.52528 58.354 4.52036 57.96 4.90625C57.564 5.29227 57.559 5.9252 57.9439 6.32024C58.0521 6.42934 58.158 6.54137 58.261 6.65434Z" fill="#D4C17F"/>
<path d="M43 37.9803H31C30.447 37.9803 30.0001 38.4283 30.0001 38.9802C30.0001 39.5322 30.447 39.9802 31 39.9802H43C45.804 39.9802 48 37.7842 48 34.9802V32.9801C48 32.4282 47.5531 31.9802 47.0001 31.9802H13.0001C12.4471 31.9802 12.0001 32.4282 12.0001 32.9801V34.9802C12.0001 37.7841 14.1961 39.9802 17.0002 39.9802H26.0001V44.9802C26.0001 45.5322 26.4471 45.9802 27.0001 45.9802C27.5531 45.9802 28.0001 45.5322 28.0001 44.9802V38.9802C28.0001 38.4283 27.5531 37.9803 27.0001 37.9803H17.0002C15.3171 37.9803 14.0002 36.6623 14.0002 34.9803V33.9803H46.0001V34.9803C46 36.6623 44.6829 37.9803 43 37.9803Z" fill="#D4C17F"/>
<path d="M52.985 23.5513C52.9949 23.6923 53 23.8363 53 23.9804C53 24.5323 53.4469 24.9803 53.9999 24.9803C54.5529 24.9803 54.9999 24.5323 54.9999 23.9804C54.9999 23.7884 54.9929 23.5983 54.9789 23.4093C54.9399 22.8594 54.472 22.4433 53.9109 22.4824C53.36 22.5223 52.9459 23.0003 52.985 23.5513Z" fill="#D4C17F"/>
<path d="M50.873 18.0623C50.508 18.4773 50.5481 19.1083 50.962 19.4743C51.194 19.6783 51.4109 19.9013 51.607 20.1373C51.806 20.3753 52.09 20.4973 52.377 20.4973C52.602 20.4973 52.829 20.4214 53.0161 20.2664C53.44 19.9123 53.4981 19.2823 53.144 18.8574C52.8831 18.5434 52.593 18.2455 52.284 17.9734C51.871 17.6094 51.239 17.6473 50.873 18.0623Z" fill="#D4C17F"/>
<path d="M31 22.9243C31 22.3723 30.5531 21.9243 30.0001 21.9243C29.4471 21.9243 29.0001 22.3723 29.0001 22.9243V24.0363C29.0001 24.5882 29.4471 25.0362 30.0001 25.0362C30.5531 25.0362 31 24.5882 31 24.0363V22.9243Z" fill="#D4C17F"/>
<path d="M30.0001 27.4803C29.4471 27.4803 29.0001 27.9283 29.0001 28.4802V28.9803C29.0001 29.5322 29.4471 29.9802 30.0001 29.9802C30.5531 29.9802 31 29.5322 31 28.9803V28.4802C31 27.9283 30.553 27.4803 30.0001 27.4803Z" fill="#D4C17F"/>
<path d="M34.0001 28.9803C34.0001 29.5322 34.4471 29.9802 35.0001 29.9802C35.5531 29.9802 36 29.5322 36 28.9803V28.4802C36 27.9283 35.5531 27.4803 35.0001 27.4803C34.4471 27.4803 34.0001 27.9283 34.0001 28.4802V28.9803Z" fill="#D4C17F"/>
<path d="M31 17.9804C31 17.8224 31.002 17.6664 31.007 17.5094C31.019 17.0824 30.758 16.7155 30.3841 16.5624C30.3461 16.5454 30.3031 16.5454 30.263 16.5335C30.188 16.5134 30.117 16.4834 30.036 16.4814C30.0261 16.4804 30.0171 16.4804 30.006 16.4804C30.004 16.4804 30.0021 16.4814 30.0001 16.4814C29.9981 16.4814 29.9961 16.4804 29.9941 16.4804C29.9831 16.4804 29.974 16.4804 29.9641 16.4814C29.8831 16.4834 29.811 16.5134 29.7371 16.5335C29.6971 16.5454 29.6531 16.5454 29.616 16.5624C29.2421 16.7155 28.981 17.0824 28.9931 17.5094C28.9981 17.6664 29.0001 17.8224 29.0001 17.9804V18.4804C29.0001 19.0324 29.4471 19.4804 30.0001 19.4804C30.5531 19.4804 31 19.0324 31 18.4804V17.9804Z" fill="#D4C17F"/>
<path d="M24.0001 28.9803C24.0001 29.5322 24.4471 29.9802 25.0001 29.9802C25.5531 29.9802 26 29.5322 26 28.9803V28.4802C26 27.9283 25.5531 27.4803 25.0001 27.4803C24.4471 27.4803 24.0001 27.9283 24.0001 28.4802V28.9803Z" fill="#D4C17F"/>
<path d="M25.0001 25.4003C25.5531 25.4003 26 24.9523 26 24.4004V23.3844C26 22.8324 25.5531 22.3844 25.0001 22.3844C24.4471 22.3844 24.0001 22.8324 24.0001 23.3844V24.4004C24.0001 24.9523 24.4471 25.4003 25.0001 25.4003Z" fill="#D4C17F"/>
<path d="M21.0002 28.9803V28.4802C21.0002 27.9283 20.5532 27.4803 20.0002 27.4803C19.4472 27.4803 19.0002 27.9283 19.0002 28.4802V28.9803C19.0002 29.5322 19.4472 29.9802 20.0002 29.9802C20.5532 29.9802 21.0002 29.5324 21.0002 28.9803Z" fill="#D4C17F"/>
<path d="M6.9841 20.2664C7.17113 20.4214 7.39707 20.4973 7.62313 20.4973C7.91012 20.4973 8.19418 20.3754 8.39316 20.1373C8.58922 19.9013 8.80613 19.6783 9.03816 19.4743C9.45218 19.1083 9.49214 18.4773 9.12711 18.0623C8.76312 17.6474 8.13113 17.6073 7.71605 17.9732C7.40703 18.2452 7.11699 18.5432 6.85508 18.8573C6.50211 19.2823 6.56012 19.9123 6.9841 20.2664Z" fill="#D4C17F"/>
<path d="M55 47.9803H34.0001V42.9803C34.0001 42.4284 33.5531 41.9803 33.0001 41.9803C32.4471 41.9803 32.0001 42.4284 32.0001 42.9803V48.9803C32.0001 49.5322 32.4471 49.9803 33.0001 49.9803H54.0001V54.9803C54.0001 56.6343 52.654 57.9803 51.0001 57.9803H9.00015C7.34617 57.9803 6.00016 56.6343 6.00016 54.9803V49.9803H29.0831C29.6361 49.9803 30.0831 49.5322 30.0831 48.9803C30.0831 48.4283 29.6361 47.9803 29.0831 47.9803H5.00008C4.44707 47.9803 4.00012 48.4283 4.00012 48.9803V54.9803C4.00012 57.7372 6.24309 59.9803 9.00015 59.9803H51.0001C53.757 59.9803 56.0001 57.7373 56.0001 54.9803V48.9803C56 48.4283 55.553 47.9803 55 47.9803Z" fill="#D4C17F"/>
<path d="M24.0001 52.9802V54.9803C24.0001 55.5322 24.4471 55.9802 25.0001 55.9802C25.5531 55.9802 26 55.5322 26 54.9803V52.9802C26 52.4283 25.5531 51.9803 25.0001 51.9803C24.4471 51.9803 24.0001 52.4283 24.0001 52.9802Z" fill="#D4C17F"/>
<path d="M1.04508 19.4813C1.03313 19.4803 1.02106 19.4803 1.0091 19.4803C0.474145 19.4803 0.0290673 19.9053 0.0111377 20.4453C0.00410644 20.6233 0.00012207 20.8013 0.00012207 20.9803C0.00012207 21.5322 0.447075 21.9802 1.00008 21.9802C1.55309 21.9802 2.00004 21.5322 2.00004 20.9803C2.00004 20.8243 2.00402 20.6703 2.00906 20.5153C2.02805 19.9633 1.59703 19.5003 1.04508 19.4813Z" fill="#D4C17F"/>
<path d="M5.36514 13.0604C5.58908 12.8444 5.82217 12.6384 6.06217 12.4424C6.49014 12.0923 6.55412 11.4623 6.2042 11.0354C5.85522 10.6084 5.22522 10.5424 4.79725 10.8934C4.51424 11.1254 4.2392 11.3683 3.97729 11.6224C3.57932 12.0054 3.5683 12.6384 3.95127 13.0364C4.14733 13.2394 4.40924 13.3414 4.67127 13.3414C4.92112 13.3413 5.17213 13.2484 5.36514 13.0604Z" fill="#D4C17F"/>
<path d="M2.72113 14.7023C2.22812 14.4563 1.62507 14.6543 1.3791 15.1483C1.21515 15.4743 1.06304 15.8094 0.927106 16.1503C0.722146 16.6643 0.972106 17.2453 1.4841 17.4502C1.60609 17.4992 1.73113 17.5222 1.85511 17.5222C2.25214 17.5222 2.62808 17.2842 2.78406 16.8932C2.89902 16.6043 3.0271 16.3213 3.16609 16.0442C3.41405 15.5504 3.21507 14.9504 2.72113 14.7023Z" fill="#D4C17F"/>
<path d="M4.52207 4.17233C4.69105 4.17233 4.86308 4.12932 5.02011 4.03932C5.29117 3.88334 5.56609 3.73627 5.8471 3.59928C6.3421 3.3553 6.54612 2.7553 6.30308 2.2603C6.05909 1.76425 5.45804 1.56128 4.9641 1.80433C4.64406 1.96136 4.33011 2.12835 4.02214 2.3053C3.54414 2.58128 3.37914 3.19229 3.65511 3.67135C3.84015 3.99233 4.17707 4.17233 4.52207 4.17233Z" fill="#D4C17F"/>
<path d="M14.0001 52.9802V54.9803C14.0001 55.5322 14.4471 55.9802 15.0001 55.9802C15.5531 55.9802 16 55.5322 16 54.9803V52.9802C16 52.4283 15.5531 51.9803 15.0001 51.9803C14.4471 51.9803 14.0001 52.4283 14.0001 52.9802Z" fill="#D4C17F"/>
<path d="M58.516 17.4504C59.028 17.2454 59.278 16.6644 59.073 16.1504C58.9369 15.8094 58.785 15.4743 58.621 15.1484C58.374 14.6545 57.773 14.4574 57.279 14.7024C56.785 14.9504 56.5859 15.5504 56.834 16.0445C56.973 16.3215 57.101 16.6045 57.2161 16.8935C57.372 17.2845 57.7481 17.5224 58.1441 17.5224C58.269 17.5223 58.394 17.4993 58.516 17.4504Z" fill="#D4C17F"/>
<path d="M59.989 20.4453C59.971 19.8923 59.481 19.4493 58.9551 19.4813C58.4031 19.5003 57.9721 19.9633 57.9911 20.5153C57.9961 20.6703 58.0001 20.8243 58.0001 20.9803C58.0001 21.5322 58.4471 21.9802 59.0001 21.9802C59.5531 21.9802 60 21.5322 60 20.9803C60 20.8013 59.9959 20.6233 59.989 20.4453Z" fill="#D4C17F"/>
<path d="M55.9771 2.30542C55.67 2.12846 55.3561 1.96147 55.0361 1.80444C54.5441 1.56245 53.9411 1.76542 53.6971 2.26042C53.454 2.75542 53.6581 3.35542 54.1531 3.5994C54.4341 3.73639 54.7091 3.88346 54.9791 4.03944C55.1371 4.12944 55.3091 4.17244 55.4772 4.17244C55.8232 4.17244 56.1601 3.99244 56.3452 3.67147C56.621 3.19241 56.456 2.58139 55.9771 2.30542Z" fill="#D4C17F"/>
<path d="M46 54.9803V52.9802C46 52.4283 45.5531 51.9803 45.0001 51.9803C44.4471 51.9803 44.0001 52.4283 44.0001 52.9802V54.9803C44.0001 55.5322 44.4471 55.9802 45.0001 55.9802C45.5531 55.9802 46 55.5322 46 54.9803Z" fill="#D4C17F"/>
<path d="M36.0002 54.9803V52.9802C36.0002 52.4283 35.5532 51.9803 35.0002 51.9803C34.4472 51.9803 34.0002 52.4283 34.0002 52.9802V54.9803C34.0002 55.5322 34.4472 55.9802 35.0002 55.9802C35.5531 55.9802 36.0002 55.5322 36.0002 54.9803Z" fill="#D4C17F"/>
<path d="M55.203 10.8934C54.774 10.5424 54.144 10.6084 53.796 11.0354C53.446 11.4624 53.51 12.0924 53.937 12.4424C54.1781 12.6384 54.411 12.8443 54.635 13.0604C54.828 13.2484 55.079 13.3414 55.329 13.3414C55.591 13.3414 55.852 13.2395 56.049 13.0364C56.4319 12.6384 56.4209 12.0054 56.0229 11.6224C55.761 11.3683 55.486 11.1254 55.203 10.8934Z" fill="#D4C17F"/>
<path d="M6.08914 22.4824C5.51809 22.4444 5.06012 22.8594 5.02016 23.4093C5.00715 23.5983 5.00012 23.7883 5.00012 23.9804C5.00012 24.5323 5.44707 24.9803 6.00008 24.9803C6.55309 24.9803 7.00004 24.5323 7.00004 23.9804C7.00004 23.8363 7.00508 23.6923 7.01504 23.5513C7.05418 23.0003 6.64016 22.5223 6.08914 22.4824Z" fill="#D4C17F"/>
<path d="M19.8101 22.0833C19.2641 22.1553 18.8781 22.6573 18.95 23.2053C18.9831 23.4592 19.0001 23.7173 19.0001 23.9803V24.1532C19.0001 24.7062 19.447 25.1532 20 25.1532C20.553 25.1532 21 24.7062 21 24.1532V23.9803C21 23.6313 20.978 23.2823 20.933 22.9442C20.8601 22.3973 20.368 22.0103 19.8101 22.0833Z" fill="#D4C17F"/>
<path d="M18.6801 3.01839C18.9741 3.12937 19.264 3.25043 19.5501 3.37839C19.6831 3.43839 19.8211 3.4664 19.9581 3.4664C20.3401 3.4664 20.7051 3.24644 20.8711 2.87543C21.0981 2.3714 20.8722 1.77937 20.3681 1.55344C20.0472 1.40941 19.7201 1.27348 19.3892 1.14738C18.8761 0.95543 18.2962 1.21137 18.1002 1.7284C17.9031 2.24437 18.163 2.8214 18.6801 3.01839Z" fill="#D4C17F"/>
<path d="M18.2931 11.3344C18.5641 11.4844 18.83 11.6454 19.087 11.8163C19.258 11.9313 19.45 11.9853 19.642 11.9853C19.964 11.9853 20.281 11.8303 20.474 11.5424C20.7811 11.0833 20.6571 10.4614 20.198 10.1544C19.8941 9.95143 19.58 9.76041 19.2581 9.58334C18.7731 9.31838 18.1661 9.49241 17.8991 9.97639C17.6331 10.4593 17.81 11.0683 18.2931 11.3344Z" fill="#D4C17F"/>
<path d="M1.00014 6.98037C1.27119 6.98037 1.54213 6.87033 1.73912 6.65435C1.84213 6.54138 1.94819 6.42935 2.05612 6.32037C2.44108 5.92533 2.4351 5.2924 2.04006 4.90639C1.64701 4.52037 1.01502 4.5274 0.626079 4.92045C0.503033 5.04642 0.381041 5.17545 0.261041 5.30646C-0.110911 5.71451 -0.0819661 6.34744 0.32608 6.71951C0.51815 6.89435 0.759087 6.98037 1.00014 6.98037Z" fill="#D4C17F"/>
<path d="M16.7191 19.2713C16.9631 19.4652 17.1921 19.6774 17.4001 19.9013C17.5981 20.1143 17.8651 20.2213 18.134 20.2213C18.3771 20.2213 18.621 20.1333 18.815 19.9544C19.219 19.5794 19.242 18.9463 18.867 18.5413C18.59 18.2433 18.286 17.9614 17.963 17.7053C17.528 17.3614 16.9 17.4343 16.5581 17.8663C16.2141 18.2983 16.2861 18.9274 16.7191 19.2713Z" fill="#D4C17F"/>
<path d="M22.3151 15.1263C22.5051 15.4283 22.8302 15.5933 23.1621 15.5933C23.3452 15.5933 23.5281 15.5432 23.6942 15.4402C24.1612 15.1453 24.3021 14.5272 24.0072 14.0602C23.8111 13.7503 23.6031 13.4483 23.3842 13.1563C23.0512 12.7173 22.4253 12.6262 21.9832 12.9593C21.5423 13.2923 21.4543 13.9193 21.7862 14.3602C21.973 14.6074 22.1491 14.8633 22.3151 15.1263Z" fill="#D4C17F"/>
<path d="M22.777 5.31431C23.025 5.50532 23.268 5.70536 23.505 5.91126C23.694 6.07626 23.928 6.1563 24.161 6.1563C24.44 6.1563 24.718 6.04028 24.915 5.81329C25.278 5.39634 25.2339 4.76435 24.817 4.40224C24.551 4.16927 24.277 3.94521 23.996 3.72923C23.559 3.39126 22.932 3.47423 22.5939 3.91228C22.258 4.35032 22.3391 4.97739 22.777 5.31431Z" fill="#D4C17F"/>
<path d="M9.18116 2.38934C9.25217 2.38934 9.32319 2.3823 9.39514 2.36637C9.70217 2.29934 10.0121 2.24039 10.3231 2.19035C10.8691 2.10434 11.2401 1.59141 11.1532 1.04637C11.0672 0.501332 10.5562 0.125395 10.0092 0.216332C9.65823 0.272348 9.31124 0.337386 8.96823 0.413324C8.42823 0.531331 8.08722 1.0643 8.20522 1.6043C8.30811 2.07141 8.7212 2.38934 9.18116 2.38934Z" fill="#D4C17F"/>
<path d="M14.0952 2.01737C14.4112 2.0394 14.7241 2.0694 15.0331 2.10843C15.0751 2.11347 15.1181 2.1164 15.1591 2.1164C15.6561 2.1164 16.0871 1.74644 16.15 1.24136C16.22 0.693391 15.831 0.193353 15.2831 0.124329C14.935 0.080384 14.5831 0.045345 14.228 0.0223763C13.6891 -0.0175846 13.199 0.402415 13.163 0.953429C13.1272 1.50433 13.5431 1.98034 14.0952 2.01737Z" fill="#D4C17F"/>
<path d="M24.4842 17.3544C23.9452 17.4764 23.6071 18.0113 23.7291 18.5504C23.7981 18.8504 23.8522 19.1544 23.8941 19.4623C23.9631 19.9644 24.3922 20.3283 24.8852 20.3283C24.9302 20.3283 24.9752 20.3253 25.0202 20.3184C25.5672 20.2444 25.9512 19.7404 25.8772 19.1934C25.8271 18.8274 25.7611 18.4654 25.6811 18.1083C25.5591 17.5703 25.0202 17.2333 24.4842 17.3544Z" fill="#D4C17F"/>
<path d="M8.95011 10.6814C9.06214 10.6814 9.17617 10.6624 9.28808 10.6224C9.57812 10.5174 9.87414 10.4255 10.1751 10.3465C10.7091 10.2044 11.027 9.65752 10.886 9.1235C10.744 8.58948 10.196 8.27448 9.66308 8.41253C9.30812 8.50651 8.95703 8.61655 8.61203 8.73948C8.093 8.92545 7.82207 9.4985 8.00898 10.0185C8.15511 10.4264 8.54007 10.6814 8.95011 10.6814Z" fill="#D4C17F"/>
<path d="M13.869 10.0143C14.18 10.0384 14.4871 10.0754 14.792 10.1253C14.847 10.1343 14.901 10.1383 14.955 10.1383C15.4361 10.1383 15.86 9.79134 15.94 9.30138C16.03 8.75634 15.6609 8.24142 15.116 8.15142C14.7571 8.09248 14.393 8.04842 14.023 8.02041C13.479 7.97236 12.992 8.38838 12.949 8.93939C12.9061 9.4904 13.318 9.97134 13.869 10.0143Z" fill="#D4C17F"/>
<path d="M12.2762 18.0173C12.3102 18.0173 12.3452 18.0163 12.3801 18.0123C12.6841 17.9812 13.0011 17.9723 13.3081 17.9873C13.8832 18.0133 14.3292 17.5903 14.3561 17.0383C14.3842 16.4873 13.9591 16.0183 13.4072 15.9903C12.9982 15.9683 12.5791 15.9813 12.1752 16.0223C11.6262 16.0793 11.2262 16.5703 11.2822 17.1204C11.3361 17.6343 11.7691 18.0173 12.2762 18.0173Z" fill="#D4C17F"/>
</g>
<defs>
<clipPath id="clip0">
<rect width="60" height="60" fill="white"/>
</clipPath>
</defs>
</svg>
